<svg xmlns="http://www.w3.org/2000/svg" width="100%" height="100%" viewBox="0 0 213 130"><rect width="100%" height="100%" fill="#DDDDDD"/><path fill="#999999" d="M47.025 65.38h5.98l-2.28-6.25q-.17-.42-.36-.99-.18-.57-.36-1.23-.17.66-.35 1.24-.18.58-.35 1l-2.28 6.23Zm4.77-11.7 7.39 18.8h-2.71q-.45 0-.74-.23-.28-.23-.43-.56l-1.4-3.84h-7.79l-1.4 3.84q-.1.3-.4.54-.3.25-.74.25h-2.73l7.39-18.8h3.56Zm17.11 5.46h3.21v13.34h-1.96q-.64 0-.81-.59l-.22-1.06q-.82.83-1.8 1.34-.99.52-2.33.52-1.09 0-1.93-.37-.84-.37-1.41-1.05t-.87-1.6q-.29-.93-.29-2.05v-8.48h3.21v8.48q0 1.22.57 1.89.56.67 1.69.67.84 0 1.56-.37.73-.37 1.38-1.02v-9.65Zm14.76 9.39v-5.98q-.55-.67-1.19-.94-.65-.27-1.39-.27-.72 0-1.31.27-.58.27-1 .83-.42.55-.64 1.4-.22.85-.22 2.01 0 1.17.19 1.98t.54 1.33q.35.51.86.74.5.23 1.13.23 1 0 1.7-.42t1.33-1.18Zm0-15.37h3.21v19.32h-1.96q-.64 0-.81-.59l-.27-1.28q-.81.92-1.86 1.49-1.04.58-2.43.58-1.1 0-2.01-.46-.91-.46-1.56-1.32-.66-.86-1.02-2.14-.35-1.27-.35-2.91 0-1.48.4-2.76.4-1.27 1.16-2.21.75-.93 1.8-1.46 1.06-.53 2.37-.53 1.12 0 1.91.36.79.35 1.42.94v-7.03Zm6.48 5.98h3.23v13.34h-3.23V59.14Zm3.67-3.89q0 .42-.17.78-.17.37-.45.64t-.65.44q-.38.16-.81.16-.42 0-.79-.16-.37-.17-.64-.44t-.44-.64q-.16-.36-.16-.78 0-.42.16-.8.17-.38.44-.65t.64-.44q.37-.16.79-.16.43 0 .81.16.37.17.65.44t.45.65q.17.38.17.8Zm8.74 3.68q1.48 0 2.69.48 1.22.49 2.08 1.37.87.88 1.34 2.16.46 1.27.46 2.84 0 1.59-.46 2.86-.47 1.28-1.34 2.18-.86.89-2.08 1.37-1.21.49-2.69.49-1.5 0-2.72-.49-1.22-.48-2.09-1.37-.86-.9-1.34-2.18-.47-1.27-.47-2.86 0-1.57.47-2.84.48-1.28 1.34-2.16.87-.88 2.09-1.37 1.22-.48 2.72-.48Zm0 11.27q1.66 0 2.46-1.11.8-1.12.8-3.28 0-2.16-.8-3.29t-2.46-1.13q-1.69 0-2.51 1.14-.81 1.14-.81 3.28 0 2.15.81 3.27.82 1.12 2.51 1.12Zm33.78-7.12q0 2.07-.68 3.83-.68 1.76-1.93 3.05-1.25 1.28-3 2.01-1.76.72-3.9.72-2.13 0-3.89-.72-1.75-.73-3.01-2.01-1.25-1.29-1.94-3.05-.69-1.76-.69-3.83 0-2.07.69-3.83.69-1.76 1.94-3.05 1.26-1.28 3.01-2 1.76-.73 3.89-.73 1.43 0 2.69.34 1.26.33 2.31.93 1.06.61 1.89 1.47.84.86 1.43 1.93.58 1.07.89 2.31.3 1.25.3 2.63Zm-3.57 0q0-1.55-.42-2.77-.41-1.23-1.18-2.09-.77-.86-1.87-1.31-1.09-.46-2.47-.46-1.38 0-2.48.46-1.1.45-1.87 1.31-.77.86-1.19 2.09-.42 1.22-.42 2.77t.42 2.78q.42 1.22 1.19 2.08.77.85 1.87 1.3 1.1.46 2.48.46t2.47-.46q1.1-.45 1.87-1.3.77-.86 1.18-2.08.42-1.23.42-2.78Zm8.93-3.35.22 1.05q.4-.4.85-.75.45-.34.95-.58.5-.24 1.07-.38.58-.14 1.25-.14 1.09 0 1.94.37.84.37 1.41 1.04.56.67.86 1.6.29.93.29 2.05v8.49h-3.21v-8.49q0-1.22-.56-1.89-.56-.67-1.7-.67-.84 0-1.56.38-.73.37-1.38 1.02v9.65h-3.21V59.14h1.96q.62 0 .82.59Zm11.92-6.57h3.21v19.32h-3.21V53.16Zm15.96 5.98h2.58l-7.27 17.01q-.14.33-.37.51-.23.18-.69.18h-2.4l2.5-5.36-5.4-12.34h2.83q.37 0 .59.18.21.19.32.42l2.83 6.92q.14.35.24.7.1.35.19.71.12-.36.23-.72.12-.36.26-.71l2.68-6.9q.1-.26.35-.43.24-.17.53-.17Z"/></svg>